<svg xmlns="http://www.w3.org/2000/svg" width = "100%" height="100%" viewBox = "0 0 750 100"><path fill="#2C3357" d="M89.1,0 L89,0 C75.9,0 63.5,5.1 54.2,14.2 C49.5,12.2 44.3,11.1 39,11.1 C17.6,11.1 0.1,28.5 0.1,50 C0.1,71.5 17.5,88.9 39,88.9 C44.2,88.9 49.4,87.8 54.1,85.8 C63.1,94.6 75.4,100 88.9,100 C116.5,100 138.9,77.6 138.9,50 C139,22.5 116.6,1.42108547e-14 89.1,1.42108547e-14 L89.1,0 Z M89,88.9 C67.6,88.9 50.1,71.5 50.1,50 L39,50 C39,59.8 41.8,69 46.7,76.7 C44.2,77.4 41.6,77.8 39,77.8 C23.7,77.8 11.2,65.3 11.2,50 C11.2,34.7 23.7,22.2 39,22.2 C45.1,22.2 50.8,24.1 55.7,27.8 C62.8,33.1 66.8,41.2 66.8,50 L78,50 C78,38.4 73,27.6 64.1,20.2 C71.1,14.4 79.9,11.1 89.1,11.1 C110.5,11.1 128,28.6 128,50 C127.9,71.4 110.5,88.9 89,88.9 Z M167.2,77.9 L167.2,42.3 L159.7,42.3 L159.7,33.4 L167.2,33.4 L167.2,20.2 L177.7,20.2 L177.7,33.4 L185.2,33.4 L185.2,42.3 L177.7,42.3 L177.7,77.9 L167.2,77.9 Z M196.1,26.9 C192.6,26.9 189.7,24 189.7,20.5 C189.7,16.9 192.6,14 196.1,14 C199.8,14 202.6,17 202.6,20.5 C202.6,24 199.9,26.9 196.1,26.9 Z M191,77.9 L191,33.4 L201.5,33.4 L201.5,77.9 L191,77.9 Z M250.8,67.4 C247.1,74.4 240.2,78.9 230.7,78.9 C217.2,78.9 207.6,69.3 207.6,55.6 C207.6,42.3 217.4,32.3 230.2,32.3 C243.2,32.3 252.3,42.3 252.3,55.6 C252.3,56.4 252.3,57.5 252.2,58.8 L218,58.8 C218.5,65.2 224.2,70.1 230.8,70.1 C236.6,70.1 239.6,67.3 242.1,63.4 L250.8,67.4 Z M241.9,51.2 C241.2,45.3 236.5,40.9 230,40.9 C223.7,40.9 218.8,46.1 218.1,51.2 L241.9,51.2 Z M268.5,77.9 L258,77.9 L258,33.4 L268.5,33.4 L268.5,39.3 C271.3,35 275.9,32.3 282.1,32.3 C293,32.3 299.3,39.5 299.3,51.1 L299.3,77.9 L288.8,77.9 L288.8,53.1 C288.8,46.2 285.4,42 278.9,42 C272.6,42 268.5,46.8 268.5,54.4 L268.5,77.9 L268.5,77.9 Z M341.6,77.9 L341.6,71.5 C338.3,76.1 332.7,78.9 326.5,78.9 C314.2,78.9 304.8,68.9 304.8,55.6 C304.8,42.5 314.2,32.3 326.5,32.3 C332.7,32.3 338.3,34.8 341.6,39.5 L341.6,16.7 L352,16.7 L352,77.9 L341.6,77.9 Z M328.7,69.4 C336.2,69.4 342,63.2 342,55.6 C342,48 336.2,41.8 328.7,41.8 C321.2,41.8 315.4,48 315.4,55.6 C315.4,63.2 321.2,69.4 328.7,69.4 Z M374,51.6 L386.1,50.1 L386.1,48.2 C386.1,43.8 383,40.9 378.2,40.9 C373.7,40.9 370.8,43.2 369.4,47.6 L359.8,45.1 C362,37.1 369.1,32.2 378.2,32.2 C389.8,32.2 396.3,38.3 396.3,48.8 L396.3,77.7 L386.5,77.7 L386.4,72.3 C383.4,76.6 378.3,78.8 372.5,78.8 C364.1,78.8 358.2,73.4 358.2,65.9 C358.2,58 363.5,53.2 374,51.6 Z M375,70.5 C381.5,70.5 386.2,66.3 386.2,60.4 L386.2,57.9 L376.1,59.3 C371.1,59.9 368.7,62.2 368.7,65.4 C368.7,68.6 371.3,70.5 375,70.5 Z M415.3,77.9 L404.8,77.9 L404.8,33.4 L415.3,33.4 L415.3,39.3 C418.1,35 422.7,32.3 428.9,32.3 C439.8,32.3 446.1,39.5 446.1,51.1 L446.1,77.9 L435.6,77.9 L435.6,53.1 C435.6,46.2 432.2,42 425.7,42 C419.4,42 415.3,46.8 415.3,54.4 L415.3,77.9 L415.3,77.9 Z M453.7,58.7 L453.7,33.4 L464.2,33.4 L464.2,58.1 C464.2,65.1 467.6,69.3 473.5,69.3 C479.3,69.3 482.8,65.1 482.8,58.1 L482.8,33.4 L493.3,33.4 L493.3,58.7 C493.3,71.5 485.9,78.9 473.5,78.9 C461.2,79 453.7,71.5 453.7,58.7 Z M501.7,77.9 L501.7,16.7 L512.1,16.7 L512.1,39.8 C515.4,35.2 521,32.4 527.2,32.4 C539.5,32.4 548.9,42.4 548.9,55.7 C548.9,68.8 539.5,79 527.2,79 C521,79 515.4,76.5 512.1,71.8 L512.1,77.9 L501.7,77.9 L501.7,77.9 Z M525.1,41.8 C517.6,41.8 511.8,48 511.8,55.6 C511.8,63.2 517.6,69.4 525.1,69.4 C532.6,69.4 538.4,63.2 538.4,55.6 C538.4,48 532.6,41.8 525.1,41.8 L525.1,41.8 Z M595.7,67.4 C592,74.4 585.1,78.9 575.6,78.9 C562.1,78.9 552.5,69.3 552.5,55.6 C552.5,42.3 562.3,32.3 575.1,32.3 C588.1,32.3 597.2,42.3 597.2,55.6 C597.2,56.4 597.2,57.5 597.1,58.8 L562.9,58.8 C563.4,65.2 569.1,70.1 575.7,70.1 C581.5,70.1 584.5,67.3 587,63.4 L595.7,67.4 L595.7,67.4 Z M586.8,51.2 C586.1,45.3 581.4,40.9 574.9,40.9 C568.6,40.9 563.7,46.1 563,51.2 L586.8,51.2 Z"></path></svg>